<svg id="圖層_1" data-name="圖層 1" xmlns="http://www.w3.org/2000/svg" viewBox="0 0 316.3 426.2"><defs><style>.cls-1{fill:none;stroke:#FFF;stroke-miterlimit:10;}</style></defs><path class="cls-1" d="M117.62,322.12c3.64,7.28,6.67,13.34,8.59,16.78a35.09,35.09,0,0,0,3.54,5.36,18.07,18.07,0,0,1,2,3.54,2.92,2.92,0,0,1,.3,1.92c-.1.3-.3.3-.91.5a3,3,0,0,0-1.92,1.42c-.3.81.1,2,1.32,3.84a64.78,64.78,0,0,0,4.65,5.87c1.41,1.61,2.22,2.42,3,3.23l2.28,2.28a8,8,0,0,1,1.36,1.56.72.72,0,0,1,0,.86c-.15.15-.35.15-1-.2s-1.62-1.06-2.12-1.31-.51-.06-.51.2,0,.55.61,1.06a10.88,10.88,0,0,0,2.83,1.57,17.73,17.73,0,0,0,2.42.5,5.56,5.56,0,0,1,1.82,1c.81.56,2,1.37,3.44,2.18s3,1.61,4.25,2.22a7.22,7.22,0,0,0,2.63,1c.6,0,1-.4,1.41-1s.81-1.41,1.21-1.62.81.21,1.22.81.81,1.42,1.21,2a4.81,4.81,0,0,0,1.42,1.42,23.27,23.27,0,0,0,2.42,1.31,12.28,12.28,0,0,1,3.44,2.33c6.07,6.06,10.92,10.31,13.75,12.64s3.64,2.73,4,3.13.41.81,1.32,2.53,2.73,4.75,7.58,12c1.21,2.42,1.21,3,1,3.94s-.61,2.12-1,3.54-.81,3-1,4a2.82,2.82,0,0,0,.2,2.23A22.12,22.12,0,0,0,197,430.5a47,47,0,0,1,4.24,5.56c1.12,1.92,1.52,3.74,2.13,4.65s1.41.91,1.82.4a5.76,5.76,0,0,0,.5-2.63,10,10,0,0,1,.61-2.93c.3-.61.71-.61,1.21-.3a27.83,27.83,0,0,1,3.54,3.33c3.64,1.22,3.64,2.43,3.74,3.44a3.83,3.83,0,0,0,.71,2.23,1.11,1.11,0,0,0,1.31.2c.31-.2.31-.61.51-1.82a32.16,32.16,0,0,0,.61-4.86c0-1.61-.41-2.83-.31-4.95s.71-5.15.71-7.58c0-1.21,1.82-3,2.73-4.15s.91-1.51.51-1.92a11.61,11.61,0,0,1-1.83-1.61c-.6-.81-1-2-.9-5.06s.7-7.88-.51-13.95c-1.21-3.64-.61-6.07-.3-8.49s.3-4.86.91-6.67,1.82-3,2.83-4.86a17.83,17.83,0,0,0,2-6.06c.2-1.82-.2-3,.2-5.06s1.62-4.85,2.23-7.08.6-3.84,1.61-6.06,3-5.06,7.08-9.91,10.11-11.73,13.34-15.57,3.64-4.65,3.64-5.46a16.31,16.31,0,0,0-.6-2.63c-.2-1-.2-2.22.6-2.83s2.43-.6,3.64-.6a4.7,4.7,0,0,0,2.63-.41c.61-.4,1-1.21,2.83-4.45s5.06-8.89,7.89-13.34,5.26-7.68,6.06-9.91,0-3.44-.4-4.65a23,23,0,0,1-.61-3.84,16,16,0,0,1-.4-4.25c.2-1.21,1-2,2.43-5.66s3.43-10.11,4.44-13.95,1-5.05.81-6.27a28.85,28.85,0,0,1-.6-3.23,3,3,0,0,1,.8-1.82,7.6,7.6,0,0,0,1-2.23,4,4,0,0,0-.41-2.93c-.61-1.31-1.82-3.13-1.82-4.35,0-2.42,1.21-3,1.82-3.94s.61-2.12,1.22-6,1.81-10.31,2.62-15.77,1.22-9.91,1.62-13.15.81-5.25,1.21-7.48a42.73,42.73,0,0,1,1.62-6.87,46,46,0,0,1,2.63-5.46,2.8,2.8,0,0,0,.4-2.43c-.2-.81-.6-2-.8-3.23a10.59,10.59,0,0,1,0-3.64,21.28,21.28,0,0,1,1.21-4.05c.61-1.61,1.41-3.64,1.82-4.85a3,3,0,0,0,0-2.63c-.41-1-1.21-2.63-1.42-3.44s.21-.8,2.23-2.22,5.66-4.25,7.48-5.86,1.82-2,1.62-3a21,21,0,0,1-.61-3.84,8.19,8.19,0,0,1,1-3.44,44,44,0,0,1,2.63-5.45c1.21-2,2.83-4,3.64-5.87s.81-3.44,1.21-4.65,1.22-2,1.62-3.44.4-3.43,1-5.25a21.9,21.9,0,0,1,2.43-4.45c.6-1,.6-1.42.4-1.62a7.78,7.78,0,0,1-1.82-1.41c-1.21-1.22-3.23-3.64-4.45-5.06a17.86,17.86,0,0,1-1.82-2.22,8.39,8.39,0,0,1-.4-2c-.2-1.21-.61-3.23-.81-5.25s-.2-4-.4-5.26-.61-1.62-.41-2.63a27.08,27.08,0,0,1,1.62-4c.61-1.42,1-2.63,1.62-4.25a29.34,29.34,0,0,1,2.83-5.86,54.91,54.91,0,0,1,4.85-6.27,11.36,11.36,0,0,1,3-2.83,11.39,11.39,0,0,1,2.43-.61,4.61,4.61,0,0,0,2-1,1.17,1.17,0,0,0,.2-1.41,4.12,4.12,0,0,0-1.41-2,8,8,0,0,0-3-1.21c-1-.2-1.83-.2-2.43-1s-1-2.43-1.82-3.84a7.57,7.57,0,0,0-3.44-3.24,17.76,17.76,0,0,0-4.45-.81,20.73,20.73,0,0,1-3.84-1c-1.21-.4-2.43-.8-3.44-1.21a13.48,13.48,0,0,0-3-1c-1.21-.2-2.83-.2-4.25-.4a7.69,7.69,0,0,1-3.43-1.22c-.81-.6-1.22-1.41-2.33-2.42a15,15,0,0,1-4.14-4.65c-6.07-1.22-6.07-1.82-6.47-3.14a18.38,18.38,0,0,0-2.23-4.75,5.35,5.35,0,0,0-3.84-2.43,10,10,0,0,0-5.86,1.42A70.51,70.51,0,0,0,261,25.7c-2.22,1.62-4.24,2.83-5.46,4.25a11.6,11.6,0,0,0-2,4.24,10.6,10.6,0,0,1-1.21,2.63,5.51,5.51,0,0,1-2.22,1.82,54.16,54.16,0,0,1-5.87,2.83,35.57,35.57,0,0,1-6.47,1.82,86.72,86.72,0,0,0-9.1,2.23c-2.22.81-2.63,1.61-4.65,3.23s-5.66,4-7.88,5.46-3,1.82-4.25,2.63a29.71,29.71,0,0,0-4.45,3.64,50.38,50.38,0,0,0-4.85,5.86A83.6,83.6,0,0,1,197.48,73c-1.82,2-3.84,3.63-4.85,5.86s-1,5.05-1.21,7.28-.61,3.84-.81,5.25a12.86,12.86,0,0,1-.61,3.44c-.4.81-1.21,1.22-2.22,2.63s-2.23,3.84-3.44,5.26a5.6,5.6,0,0,1-3.64,2,9.49,9.49,0,0,0-3.44.81c-1,.61-1.82,1.82-3.43,3.64s-4.05,4.24-5.26,6.67c-3.64,7.28-6.07,11.53-8.49,15.67s-4.86,8.19-6.27,11a49.58,49.58,0,0,0-2.63,6.67,39,39,0,0,1-3.44,7.28c-1.41,2.23-3,3.84-4.65,6.67s-3.23,6.88-4.45,9.51a27.56,27.56,0,0,1-3,5.25c-1,1.42-2.22,3-3.43,4.66s-2.43,3.23-3.85,5.45a40,40,0,0,0-4.14,8.29c-1.11,3.24-1.72,6.88-5.36,10.52-4.85,6.06-6.67,9.1-8.39,12.43a67.37,67.37,0,0,0-4.35,10.21,38.66,38.66,0,0,0-1.62,8.7,41.68,41.68,0,0,0,0,7.08c.21,2,.61,3.63.81,5.25a42.49,42.49,0,0,1,.21,5.46c0,2.23,0,5.06-.21,7.48s-.6,4.45-1,7.08-.81,5.86-1.41,9.3-1.42,7.08-2,9.3a29,29,0,0,0-1,3.64,2.08,2.08,0,0,0,.81,1.42c.41.4.81.8,1,2.63s.21,5,.61,7.07,1.21,2.83,3.74,5.36A149.08,149.08,0,0,1,117.62,322.12Z" transform="translate(-11.62 -18.88)"/><path class="cls-1" d="M275.33,343.75a2.35,2.35,0,0,1-1-1,1.28,1.28,0,0,1-.11-1c.1-.19.28-.17.69,0a3.84,3.84,0,0,0,1.53.58c.52,0,.92-.41,1.33-.52s.8.11,1.21.11a5.39,5.39,0,0,0,1.21-.31,1.7,1.7,0,0,1,1,0c.2.1.2.31.41.71a4.92,4.92,0,0,1,.6,1.31c0,.31-.4.31-.6.51s-.21.61-.51,1.11-.91,1.11-1.11,1.52,0,.6.3,1a6.24,6.24,0,0,1,.81,1.31c.1.31-.1.31-.5.21a6.26,6.26,0,0,1-1.52-.61,2.11,2.11,0,0,1-1-1.11c-.1-.41.1-.81-.2-.81s-1.12.4-1.62.5-.71-.1-.61-.7a21.6,21.6,0,0,0,.51-2.13C276.14,344,275.73,344,275.33,343.75Z" transform="translate(-11.62 -18.88)"/><path class="cls-1" d="M23.19,249.94c.2-.41.61-.21,1.11-.41a14.6,14.6,0,0,0,1.62-1.11,1.25,1.25,0,0,1,1.11-.2c.21.1.21.3.31.7a11,11,0,0,1,.3,1.22c0,.2-.2,0-.61-.1a2.33,2.33,0,0,0-1.72.3c-.7.4-1.51,1.21-1.92,1.11S23,250.34,23.19,249.94Z" transform="translate(-11.62 -18.88)"/><path class="cls-1" d="M24.61,246.9a.45.45,0,0,0-.31-.4c-.1,0-.1.2-.2.2s-.3-.2-.5-.2a.66.66,0,0,0-.51.4.46.46,0,0,0,0,.51c.1.1.3.1.51.2s.4.3.6.41a.46.46,0,0,0,.51,0,.32.32,0,0,0,0-.41c-.1-.1-.31-.1-.31-.2S24.61,247.11,24.61,246.9Z" transform="translate(-11.62 -18.88)"/><path class="cls-1" d="M25.42,267.43a1.74,1.74,0,0,1,.1-.81c.1-.1.3.1.4,0s.1-.51.2-.71a.26.26,0,0,1,.41-.1c.1.1.1.3.2.4s.3.1.61.2a3,3,0,0,1,.91.51c.2.2.2.4.1.51a.46.46,0,0,1-.51,0c-.2-.11-.4-.31-.6-.41a.46.46,0,0,0-.51,0c-.1.1-.1.3-.2.41s-.31.1-.41.2a.75.75,0,0,0-.1.5c0,.21,0,.41-.1.41s-.3-.2-.4-.41A1.48,1.48,0,0,1,25.42,267.43Z" transform="translate(-11.62 -18.88)"/><path class="cls-1" d="M23.39,263.48c-.2,0-.6.21-.8.21s-.21-.21-.41-.31-.61-.1-.71.1.1.61.21,1.32a8.21,8.21,0,0,1,0,2.22c-.11.51-.31.51-.61.81a2.57,2.57,0,0,0-.71,1.21c0,.31.41.31.71.21a4.32,4.32,0,0,0,.81-.51,2.29,2.29,0,0,1,.91-.4c.2,0,.2.2.3.4a.66.66,0,0,0,.51.4.43.43,0,0,0,.4-.4c0-.2-.2-.4-.3-.71a1.41,1.41,0,0,1,0-.91c.1-.2.3-.2.4-.4a1.7,1.7,0,0,0,0-1c-.1-.41-.3-.81-.4-1.11a2,2,0,0,1-.1-.71C23.6,263.69,23.6,263.48,23.39,263.48Z" transform="translate(-11.62 -18.88)"/><path class="cls-1" d="M32.49,213.74a1.8,1.8,0,0,0,.2,1.42c.21.4.41.61.81.4a13.75,13.75,0,0,0,1.42-1.11c.4-.3.61-.3.81-.51a1.49,1.49,0,0,0,.4-.9c0-.31-.2-.51-.5-.81s-.71-.71-1-.61-.51.71-.91,1.11S32.69,213.34,32.49,213.74Z" transform="translate(-11.62 -18.88)"/><path class="cls-1" d="M36.23,233.46a4.67,4.67,0,0,0-.91-.31c-.2,0-.2.21-.3.31s-.3.1-.4.2a.41.41,0,0,0,0,.5,1.58,1.58,0,0,1,.3.71,4,4,0,0,1-.41,1.22,9.93,9.93,0,0,1-.6,1.41c-.2.3-.41.3-.51.2s-.1-.3-.2-.4-.3-.1-.4-.3a2.66,2.66,0,0,1-.11-1,2.88,2.88,0,0,0-.1-1c-.1-.2-.3-.2-.6.1a7,7,0,0,1-1.22,1.22,5.84,5.84,0,0,1-1.31.4c-.2.1,0,.31,0,.61a3,3,0,0,1-.4,1.11c-.21.41-.41.81-.31,1s.51.2.91-.1.81-.91,1.11-1,.51.3.81.61a9.06,9.06,0,0,0,.81.6c.1.1-.1.1-.2.31a1.13,1.13,0,0,0,0,.81c.1.2.3.2.71.2a6.7,6.7,0,0,1,1.41.1c.41.1.61.3.51.5s-.51.41-.71.71a3.88,3.88,0,0,0-.3,1,.89.89,0,0,1-.71.61,4.37,4.37,0,0,1-1.62,0,14.49,14.49,0,0,0-1.62-.3c-.4,0-.6.2-.8.2a.66.66,0,0,1-.51-.41c-.1-.2-.1-.4-.2-.6s-.31-.41-.31-.61.21-.4.41-.51.4-.1.5-.2a.24.24,0,0,0-.1-.4,8.48,8.48,0,0,0-1-.2,9.84,9.84,0,0,0-1-.31c-.2,0-.2.21-.1.41s.3.4.4.6a1,1,0,0,1,0,.81,3.27,3.27,0,0,0-.2,1.32c.1.3.51.3.81.4a1.75,1.75,0,0,1,.71.51c.2.2.4.4.61.4s.4-.2.6-.3a.66.66,0,0,1,.61,0,1.7,1.7,0,0,1,.6.6,2.09,2.09,0,0,1,.41,1.12,8.92,8.92,0,0,1-.2,1c0,.2.2.2.4.1a2.81,2.81,0,0,1,.91-.41c.51-.1,1.32-.1,1.92-.2a3.31,3.31,0,0,0,1.32-.5,1.4,1.4,0,0,0,.6-.71,1.74,1.74,0,0,0,0-1,4.08,4.08,0,0,0-.4-.71.49.49,0,0,1,.1-.61,7.39,7.39,0,0,1,1.11-.7,4.67,4.67,0,0,0,1.52-1.32c.4-.6.6-1.41.91-1.92a1.32,1.32,0,0,1,.91-.71c.2,0,.2.21.5.31a5.9,5.9,0,0,0,1.42.1,4.19,4.19,0,0,1,1.21.1.89.89,0,0,1,.61.61c.1.3.1.7.2.91s.3.2.81-.11a11.37,11.37,0,0,0,1.62-1.21c.3-.3.1-.3-.1-.4a3.16,3.16,0,0,0-.81-.41c-.41-.1-1-.1-1.32-.4a2.15,2.15,0,0,1-.3-1.42,4.19,4.19,0,0,1,.1-1.21c.1-.3.3-.51.2-.81a3.85,3.85,0,0,0-.91-1.11c-.4-.41-.81-.81-1-.81s-.2.4-.4.61a.62.62,0,0,1-.81,0c-.2-.21-.2-.61-.3-.81s-.31-.21-.41,0a5,5,0,0,1-.3.91c-.2.3-.61.5-.81.91s-.2,1-.3,1.11-.31-.3-.51-.41-.4.11-.61.51a6.79,6.79,0,0,1-.6,1.21c-.2.21-.41,0-.41-.2s.21-.4.31-.71a3.79,3.79,0,0,0,.1-1.11,2.85,2.85,0,0,1,.1-1c.1-.2.3-.2.4-.3a.46.46,0,0,0,0-.51,1.21,1.21,0,0,0-.5-.5.43.43,0,0,0-.51,0,.75.75,0,0,0-.1.5.78.78,0,0,1-.1.51C36.74,233.56,36.54,233.56,36.23,233.46Z" transform="translate(-11.62 -18.88)"/><path class="cls-1" d="M25.92,229.31c.1-.2.1-.4-.1-.5a2.85,2.85,0,0,0-1-.1,4.48,4.48,0,0,1-1.21-.11,6.31,6.31,0,0,0-1.12-.3c-.3,0-.5.2-.7.51a5.87,5.87,0,0,0-.61,1.21,2.93,2.93,0,0,0-.3,1.52c.1.4.5.6.7.91a1.36,1.36,0,0,1,.11,1.11,1.62,1.62,0,0,1-.51.91c-.2.1-.4-.1-.61-.31s-.4-.4-.5-.4-.1.2,0,.51a2.78,2.78,0,0,0,.6,1c.31.3.71.5.91.7s.21.41.11.51-.31.1-.41.4-.1.91-.2,1.22-.3.3-.51.2-.4-.3-.6-.41a.47.47,0,0,0-.61.11c-.2.2-.4.6-.71.91a1.67,1.67,0,0,1-.91.5c-.2,0-.2-.2-.3-.2s-.3.2-.41.4a.66.66,0,0,0,0,.61c.11.2.31.41.51.41s.4-.21.61-.41a4.93,4.93,0,0,1,.7-.61,3.82,3.82,0,0,1,1.12-.5,2.48,2.48,0,0,1,1.21,0,3.76,3.76,0,0,1,1.11.5c.31.21.51.41.71.41s.4-.2.5-.51a1.29,1.29,0,0,0,0-.91c-.1-.2-.3-.2-.4-.3s-.1-.3,0-.61a8.11,8.11,0,0,0,.4-1.21c.11-.51.11-1.11.21-1.42s.3-.3.4-.4.1-.3.2-.81a5.93,5.93,0,0,0,.21-1.92,5.61,5.61,0,0,0-.61-1.31.49.49,0,0,1,.3-.61,1.31,1.31,0,0,1,.61-.1,1.33,1.33,0,0,0,.61-.1A1.23,1.23,0,0,0,25.92,229.31Z" transform="translate(-11.62 -18.88)"/><path class="cls-1" d="M28.35,227.19a2,2,0,0,1-.91-.91,2.4,2.4,0,0,1-.2-1.11c0-.31,0-.51.1-.61s.3-.1.6-.1a4.64,4.64,0,0,0,1.12-.1,6.52,6.52,0,0,0,1.21-.51,6.2,6.2,0,0,1,1.21-.5,5.45,5.45,0,0,1,1.32-.1,3,3,0,0,1,1.41.2.78.78,0,0,1,.2.91c-.1.3-.3.5-.2.81s.51.7.61,1a.48.48,0,0,1-.31.6c-.2.11-.4.11-.5.51a2.32,2.32,0,0,0,.2,1.62c.3.4.91.4,1,.5s-.3.31-.71.61-.8.71-1,.81-.2-.1-.4-.31-.61-.4-.71-.6.1-.41.2-.71a1.21,1.21,0,0,0-.1-1c-.2-.3-.6-.51-.81-1s-.2-1.32-.4-1.62-.61-.1-.91.1a3.62,3.62,0,0,1-.81.51c-.3.1-.71.1-.81.2s.1.3.1.51A.35.35,0,0,1,28.35,227.19Z" transform="translate(-11.62 -18.88)"/><path class="cls-1" d="M289.18,416.85a.46.46,0,0,0-.51,0,4.35,4.35,0,0,1-.7.4,2.12,2.12,0,0,1-1.12,0c-.4-.1-.8-.3-1.31-.4a5,5,0,0,0-1.72,0,14.09,14.09,0,0,1-1.62.3.72.72,0,0,1-.7-.4c-.11-.21-.11-.41-.21-.51a.45.45,0,0,0-.5,0,1.2,1.2,0,0,0-.51.51.45.45,0,0,0,0,.5c.1.1.31.1.41.2s.1.31.2.51a2.54,2.54,0,0,1,.4.91,6.17,6.17,0,0,1,0,1.92c-.1.61-.3,1-.3,1.21s.2.21.51.21a3.5,3.5,0,0,1,1,.1,1.23,1.23,0,0,1,.71.71,9.23,9.23,0,0,0,.7,1.41,1.6,1.6,0,0,0,1.42.61c.71,0,1.72-.21,2.22-.21s.51.21.51.51a1.34,1.34,0,0,0,.3,1c.3.3.91.51,1.11.81s0,.71,0,1a.64.64,0,0,0,.51.61c.3.1.71.1,1,.2s.5.3.71.3.4-.2.6-.6a3.64,3.64,0,0,0,.41-1.42c0-.4-.2-.61-.2-.81s.2-.4.4-.6.4-.41.3-.51a4.1,4.1,0,0,0-.91-.2,2.44,2.44,0,0,1-1.11-.61c-.3-.3-.5-.71-.71-.81s-.4.1-.81,0a2.53,2.53,0,0,1-1.21-.81c-.2-.3,0-.5,0-.7s-.2-.41-.3-.61a.48.48,0,0,1,.1-.61,1.52,1.52,0,0,1,.91-.4c.3,0,.5.2.61.2s.1-.2.1-.4a.77.77,0,0,0-.1-.51c-.11-.1-.31-.1-.51-.3a1.52,1.52,0,0,1-.4-.91,1.49,1.49,0,0,1,.3-.71,1.29,1.29,0,0,0,.1-.61A.75.75,0,0,0,289.18,416.85Z" transform="translate(-11.62 -18.88)"/><path class="cls-1" d="M12.27,288.35c.2-.2.61-.2,1-.4s.81-.61,1.22-.61.81.41,1.21.61a2.58,2.58,0,0,0,1.21.2c.41,0,.81,0,.81.2s-.4.61-.6,1-.21.81-.41,1-.61.21-.81.41-.2.61-.4.81-.61.2-.81.4-.2.61-.4.61a.9.9,0,0,1-.61-.81c0-.4.4-.81.61-1.21a.91.91,0,0,0,0-1,1.5,1.5,0,0,0-1-.21,1.53,1.53,0,0,1-1-.2A.62.62,0,0,1,12.27,288.35Z" transform="translate(-11.62 -18.88)"/><path class="cls-1" d="M218.32,398.62s0-.05,0-.07c-1.21-3.64-.61-6.07-.3-8.49s.3-4.86.91-6.67,1.82-3,2.83-4.86a17.83,17.83,0,0,0,2-6.06c.2-1.82-.2-3,.2-5.06s1.62-4.85,2.23-7.08.6-3.84,1.61-6.06,3-5.06,7.08-9.91,10.11-11.73,13.34-15.57,3.64-4.65,3.64-5.46a16.31,16.31,0,0,0-.6-2.63c-.2-1-.2-2.22.6-2.83s2.43-.6,3.64-.6a4.7,4.7,0,0,0,2.63-.41c.61-.4,1-1.21,2.83-4.45s5.06-8.89,7.89-13.34,5.26-7.68,6.06-9.91,0-3.44-.4-4.65a23,23,0,0,1-.61-3.84,16,16,0,0,1-.4-4.25c.2-1.21,1-2,2.43-5.66s3.43-10.11,4.44-13.95,1-5.05.81-6.27a28.85,28.85,0,0,1-.6-3.23,3,3,0,0,1,.8-1.82,7.6,7.6,0,0,0,1-2.23,4,4,0,0,0-.41-2.93c-.61-1.31-1.82-3.13-1.82-4.35,0-2.42,1.21-3,1.82-3.94s.61-2.12,1.22-6,1.81-10.31,2.62-15.77,1.22-9.91,1.62-13.15.81-5.25,1.21-7.48a42.73,42.73,0,0,1,1.62-6.87,46,46,0,0,1,2.63-5.46,2.8,2.8,0,0,0,.4-2.43c-.2-.81-.6-2-.8-3.23a10.59,10.59,0,0,1,0-3.64,21.28,21.28,0,0,1,1.21-4.05c.61-1.61,1.41-3.64,1.82-4.85a3,3,0,0,0,0-2.63c-.41-1-1.21-2.63-1.42-3.44s.21-.8,2.23-2.22,5.66-4.25,7.48-5.86,1.82-2,1.62-3a21,21,0,0,1-.61-3.84,8.19,8.19,0,0,1,1-3.44,44,44,0,0,1,2.63-5.45c1.21-2,2.83-4,3.64-5.87s.81-3.44,1.21-4.65,1.22-2,1.62-3.44.4-3.43,1-5.25a21.9,21.9,0,0,1,2.43-4.45c.6-1,.6-1.42.4-1.62a7.78,7.78,0,0,1-1.82-1.41c-1.21-1.22-3.23-3.64-4.45-5.06a17.86,17.86,0,0,1-1.82-2.22,8.39,8.39,0,0,1-.4-2c-.2-1.21-.61-3.23-.81-5.25s-.2-4-.4-5.26-.61-1.62-.41-2.63a27.08,27.08,0,0,1,1.62-4c.61-1.42,1-2.63,1.62-4.25a29.34,29.34,0,0,1,2.83-5.86,54.91,54.91,0,0,1,4.85-6.27,11.83,11.83,0,0,1,3-2.82,12.51,12.51,0,0,0-4.32-.21,11.36,11.36,0,0,0-3.74,1.41,45.62,45.62,0,0,0-5.46,3,6.16,6.16,0,0,0-2.23,2.62,5.72,5.72,0,0,1-1.62,2.23,3.84,3.84,0,0,1-2.83.81c-.81-.2-1.21-1-1.61-.81s-.81,1.41-1.42,2.42-1.42,1.82-4.85,4S285,78.27,281.8,80.29s-3.64,2.43-3.64,3.64a33.22,33.22,0,0,1,.2,4.45c-.2,1.22-1,1.62-2.22,2.23s-2.83,1.41-4.85,2.22-4.45,1.62-5.87,2.22c-.95.41-1.45.73-1.92.65-1.1,1.84-2.38,3.61-3.23,5a10.51,10.51,0,0,0-1.72,4.55,11.9,11.9,0,0,1-.7,3.5,2.46,2.46,0,0,1,.09,2.46,14,14,0,0,1-2.22,3.44c-1,1.21-2.23,2.42-3.64,4.24s-3,4.25-4.25,5.66a10.94,10.94,0,0,1-1,1c1,1.83,1.93,3.26,2.6,4.34a8.34,8.34,0,0,0,1.82,2.53,4.39,4.39,0,0,0,2.42.4,17.58,17.58,0,0,0,3.24-.2,14.29,14.29,0,0,1,2.83-.6,8.19,8.19,0,0,1,3.44,1l.23.11c-3.44,4.29-5.38,6.67-6.91,8.28a48.45,48.45,0,0,1-3.63,3.33c-.61.61-.61,1-.61,2a30.24,30.24,0,0,0,.2,4,13,13,0,0,0,1.42,4.25c.81,1.61,2,3.64,2.42,4.65s0,1-.81,1a7,7,0,0,0-2.83.4,2.93,2.93,0,0,0-1.41,2,5,5,0,0,0,0,2.43,5.19,5.19,0,0,1,.4,2.43c-.2.81-1,1.61-2.42,3.43A60.88,60.88,0,0,0,244.8,178c-1,1.82-1,2.63-.81,3.24a3.68,3.68,0,0,0,1,1.42,8.41,8.41,0,0,1,1.21,1.41,4.69,4.69,0,0,1,.81,2.83,23.49,23.49,0,0,1-.81,5.06,29.66,29.66,0,0,1-1.21,3.84c-.4,1-.81,1.82-1.21,2.63a24.33,24.33,0,0,1-1.62,2.83c-.81,1.21-2,2.83-2.63,3.84s-.61,1.41-.2,1.82,1.21.81,2,1.41a21.28,21.28,0,0,1,2.22,2c.61.6,1,1,1,1.61s-.41,1.42-1,4.25-1.41,7.68-2,10.11-1,2.43-2,2.83a11.75,11.75,0,0,0-3.44,2,3.19,3.19,0,0,0-.81,2.63,11.7,11.7,0,0,1-.2,2.83c-.2.61-.6.61-1.82.81s-3.23.61-4.45.81-1.61.2-2,.81-.81,1.82-1.62,3.23a33.44,33.44,0,0,1-2.83,4.05c-.8,1-1.21,1.41-1.21,1.82s.41.8.81,1.21a5.4,5.4,0,0,1,1,1.21c.2.41.2.81-.2,1a15.55,15.55,0,0,1-2,.41c-.81.2-1.62.61-2.43.81a17.38,17.38,0,0,0-2,.4c-.41.2-.41.61-.41,1.21a6.69,6.69,0,0,0,.21,2c.2.6.6,1,1.61,1.21s2.63.2,3.85.4,2,.61,2.22,1.22-.2,1.41-.4,2.42a5.85,5.85,0,0,0,.15,3.1c-1.19.41-2,.54-3,.95a29.28,29.28,0,0,0-4.24,2.63,16.32,16.32,0,0,0-2.83,2c-.81.81-1.62,2-2.43,3s-1.62,1.82-2.22,2.63a11,11,0,0,0-1.42,2.63,20,20,0,0,0-1,3.23,42.55,42.55,0,0,0-.4,4.45c-.21,2.63-.61,7.08-.81,10.11s-.2,4.65-.41,5.66a3,3,0,0,1-1,1.82l-1.21,1.22a8,8,0,0,0-1.21,1.41,7.66,7.66,0,0,0-1,2.22,5,5,0,0,0,0,2.43,7.6,7.6,0,0,0,1,2.23,6.7,6.7,0,0,1,1.21,2.42c.4,1.42.81,3.84,1.21,5.26a4.72,4.72,0,0,0,2,2.83,37.87,37.87,0,0,1,4.25,3.84,4.14,4.14,0,0,1,1,3.24,27.34,27.34,0,0,1-.2,4,4.62,4.62,0,0,1-1.21,2.63,9.87,9.87,0,0,1-3.44,1.82,54.74,54.74,0,0,0-6.88,3c-1.61,1-1.61,1.82-2,3.64s-1.21,4.65-2,7.08-1.62,4.45-2,6.06a8.41,8.41,0,0,0-.2,3.85,33.16,33.16,0,0,0,1.41,4,84.29,84.29,0,0,1,2.63,8.49,22.16,22.16,0,0,1,.61,5.66,16.6,16.6,0,0,0,.2,3.44,1.72,1.72,0,0,0,1.41,1.42,10.06,10.06,0,0,1,2.63.6c.61.41.61,1.22.61,2.23a14.46,14.46,0,0,0,.2,3A3.67,3.67,0,0,0,204,393.9a9.87,9.87,0,0,0,2.23,1.82c.81.4,1.62.4,2.63.81s2.22,1.21,3.43,1.62a14.37,14.37,0,0,0,4.55.4A11.49,11.49,0,0,1,218.32,398.62Z" transform="translate(-11.62 -18.88)"/><path class="cls-1" d="M218.32,398.62c1.2,6,.6,10.86.5,13.88s.3,4.25.9,5.06a11.61,11.61,0,0,0,1.83,1.61c.4.41.4.81-.51,1.92s-2.73,2.94-2.73,4.15c0,2.43-.61,5.46-.71,7.58s.31,3.34.31,4.95a32.16,32.16,0,0,1-.61,4.86c-.2,1.21-.2,1.62-.51,1.82a1.11,1.11,0,0,1-1.31-.2,3.83,3.83,0,0,1-.71-2.23c-.1-1-.1-2.22-3.74-3.44a27.83,27.83,0,0,0-3.54-3.33c-.5-.31-.91-.31-1.21.3a10,10,0,0,0-.61,2.93,5.76,5.76,0,0,1-.5,2.63c-.41.51-1.22.51-1.82-.4s-1-2.73-2.13-4.65A47,47,0,0,0,197,430.5a22.12,22.12,0,0,1-2.53-3.64,2.82,2.82,0,0,1-.2-2.23c.2-1,.61-2.63,1-4s.81-2.63,1-3.54.2-1.52-1-3.94c-4.85-7.28-6.67-10.31-7.58-12s-.91-2.13-1.32-2.53-1.21-.81-4-3.13-7.68-6.58-13.75-12.64a12.28,12.28,0,0,0-3.44-2.33,23.27,23.27,0,0,1-2.42-1.31,4.81,4.81,0,0,1-1.42-1.42c-.4-.6-.81-1.41-1.21-2s-.81-1-1.22-.81-.8,1-1.21,1.62-.81,1-1.41,1a7.22,7.22,0,0,1-2.63-1c-1.22-.61-2.83-1.41-4.25-2.22s-2.63-1.62-3.44-2.18a5.56,5.56,0,0,0-1.82-1,17.73,17.73,0,0,1-2.42-.5,10.88,10.88,0,0,1-2.83-1.57c-.61-.51-.61-.81-.61-1.06s0-.46.51-.2,1.51,1,2.12,1.31.81.35,1,.2a.72.72,0,0,0,0-.86,8,8,0,0,0-1.36-1.56l-2.28-2.28c-.81-.81-1.62-1.62-3-3.23a64.78,64.78,0,0,1-4.65-5.87c-1.22-1.82-1.62-3-1.32-3.84a3,3,0,0,1,1.92-1.42c.61-.2.81-.2.91-.5a2.92,2.92,0,0,0-.3-1.92,18.07,18.07,0,0,0-2-3.54,35.09,35.09,0,0,1-3.54-5.36c-1.92-3.44-4.95-9.5-8.59-16.78A149.08,149.08,0,0,0,106,309.28c-2.53-2.53-3.34-3.34-3.74-5.36s-.4-5.26-.61-7.07-.6-2.23-1-2.63a2.08,2.08,0,0,1-.81-1.42,29,29,0,0,1,1-3.64c.61-2.22,1.42-5.86,2-9.3.5-2.87.87-5.6,1.21-8,3.05-.53,4.05,0,5.05.38,1.22.5,2.43.91,3.44,1.31a8.2,8.2,0,0,0,2.43.81c.61,0,1-.4,1.41-1s.81-1.41,1.22-2a3.49,3.49,0,0,1,1.21-1.22,1.3,1.3,0,0,1,1.21,0c.41.21.81.61,1.22.81a.88.88,0,0,0,1,0c.2-.2.2-.6,0-1.21a3.6,3.6,0,0,1-.41-2c.2-.61,1-1,2-2s2.22-2.63,3.43-3.64a21.39,21.39,0,0,1,3.44-2c1-.61,1.82-1.42,2.63-1.82a5.06,5.06,0,0,1,2.42-.41,12.57,12.57,0,0,1,2.63.2,23.21,23.21,0,0,0,2.83.61c.61,0,.61-.4,1-.61a18.09,18.09,0,0,1,2-.4c.81-.2,1.61-.61,2.22-.81s1-.2,1.21,0a7,7,0,0,0,1,1.42c.81.8,2.43,2,3.44,3s1.42,1.82,2,2.43a12.41,12.41,0,0,0,2,1.41,3.45,3.45,0,0,1,1.21,1.21,1.32,1.32,0,0,1,0,1.22,5.4,5.4,0,0,1-1,1.21c-.41.4-.81.81-.81,1.21s.4.81,1,1.82,1.42,2.63,2,3.84,1,2,1.42,2.83a19.93,19.93,0,0,1,1,2.23c.2.61.2,1,.61,1.21a2.24,2.24,0,0,0,1.61,0c.41-.2.41-.6.61-.6s.61.4.81.4.2-.4.2-.81a2.18,2.18,0,0,1,.4-1.41,6.18,6.18,0,0,1,1.62-1.62c.41-.2.41.2.41.6v1.22c0,.4,0,.81.91,1a30.43,30.43,0,0,0,5.08.2c.08-.28.18-.55.27-.81.61-1.62,1.42-2.83,2-4.24s1-3,2.22-4.25,3.24-2,5.26-3a21.77,21.77,0,0,0,5.26-3.44,19.15,19.15,0,0,0,2.42-3.64,15.42,15.42,0,0,1,3.64-3.64c1.62-1.21,3.64-2.42,5.26-3.44s2.83-1.81,3.74-2.52,1.42-1.22,3.39-4.13q.36.11.75.18a23.21,23.21,0,0,0,4.35.21h9.2c0,.4.41.8.81,1.21a5.4,5.4,0,0,1,1,1.21c.2.41.2.81-.2,1a15.55,15.55,0,0,1-2,.41c-.81.2-1.62.61-2.43.81a17.38,17.38,0,0,0-2,.4c-.41.2-.41.61-.41,1.21a6.69,6.69,0,0,0,.21,2c.2.6.6,1,1.61,1.21s2.63.2,3.85.4,2,.61,2.22,1.22-.2,1.41-.4,2.42a5.85,5.85,0,0,0,.15,3.1c-1.19.41-2,.54-3,.95a29.28,29.28,0,0,0-4.24,2.63,16.32,16.32,0,0,0-2.83,2c-.81.81-1.62,2-2.43,3s-1.62,1.82-2.22,2.63a11,11,0,0,0-1.42,2.63,20,20,0,0,0-1,3.23,42.55,42.55,0,0,0-.4,4.45c-.21,2.63-.61,7.08-.81,10.11s-.2,4.65-.41,5.66a3,3,0,0,1-1,1.82l-1.21,1.22a8,8,0,0,0-1.21,1.41,7.66,7.66,0,0,0-1,2.22,5,5,0,0,0,0,2.43,7.6,7.6,0,0,0,1,2.23,6.7,6.7,0,0,1,1.21,2.42c.4,1.42.81,3.84,1.21,5.26a4.72,4.72,0,0,0,2,2.83,37.87,37.87,0,0,1,4.25,3.84,4.14,4.14,0,0,1,1,3.24,27.34,27.34,0,0,1-.2,4,4.62,4.62,0,0,1-1.21,2.63,9.87,9.87,0,0,1-3.44,1.82,54.74,54.74,0,0,0-6.88,3c-1.61,1-1.61,1.82-2,3.64s-1.21,4.65-2,7.08-1.62,4.45-2,6.06a8.41,8.41,0,0,0-.2,3.85,33.16,33.16,0,0,0,1.41,4,84.29,84.29,0,0,1,2.63,8.49,22.16,22.16,0,0,1,.61,5.66,16.6,16.6,0,0,0,.2,3.44,1.72,1.72,0,0,0,1.41,1.42,10.06,10.06,0,0,1,2.63.6c.61.41.61,1.22.61,2.23a14.46,14.46,0,0,0,.2,3A3.67,3.67,0,0,0,204,393.9a9.87,9.87,0,0,0,2.23,1.82c.81.4,1.62.4,2.63.81s2.22,1.21,3.43,1.62a14.37,14.37,0,0,0,4.55.4A11.49,11.49,0,0,1,218.32,398.62Z" transform="translate(-11.62 -18.88)"/><path class="cls-1" d="M118.51,207.27a66.32,66.32,0,0,0-8.07,12,67.37,67.37,0,0,0-4.35,10.21,38.66,38.66,0,0,0-1.62,8.7,41.68,41.68,0,0,0,0,7.08c.21,2,.61,3.63.81,5.25a42.49,42.49,0,0,1,.21,5.46c0,2.23,0,5.06-.21,7.48s-.6,4.45-1,7.08c-.06.43-.13.88-.2,1.34,3.05-.53,4.05,0,5.05.38,1.22.5,2.43.91,3.44,1.31a8.2,8.2,0,0,0,2.43.81c.61,0,1-.4,1.41-1s.81-1.41,1.22-2a3.49,3.49,0,0,1,1.21-1.22,1.3,1.3,0,0,1,1.21,0c.41.21.81.61,1.22.81a.88.88,0,0,0,1,0c.2-.2.2-.6,0-1.21a3.6,3.6,0,0,1-.41-2c.2-.61,1-1,2-2s2.22-2.63,3.43-3.64a21.39,21.39,0,0,1,3.44-2c1-.61,1.82-1.42,2.63-1.82a5.06,5.06,0,0,1,2.42-.41,12.57,12.57,0,0,1,2.63.2,23.21,23.21,0,0,0,2.83.61c.61,0,.61-.4,1-.61a18.09,18.09,0,0,1,2-.4c.81-.2,1.61-.61,2.22-.81s1-.2,1.21,0a7,7,0,0,0,1,1.42c.81.8,2.43,2,3.44,3s1.42,1.82,2,2.43a12.41,12.41,0,0,0,2,1.41,3.45,3.45,0,0,1,1.21,1.21,1.32,1.32,0,0,1,0,1.22,5.4,5.4,0,0,1-1,1.21c-.41.4-.81.81-.81,1.21s.4.81,1,1.82,1.42,2.63,2,3.84,1,2,1.42,2.83a19.93,19.93,0,0,1,1,2.23c.2.61.2,1,.61,1.21a2.24,2.24,0,0,0,1.61,0c.41-.2.41-.6.61-.6s.61.4.81.4.2-.4.2-.81a2.18,2.18,0,0,1,.4-1.41,6.18,6.18,0,0,1,1.62-1.62c.41-.2.41.2.41.6v1.22c0,.4,0,.81.91,1a30.43,30.43,0,0,0,5.08.2c.08-.28.18-.55.27-.81.61-1.62,1.42-2.83,2-4.24s1-3,2.22-4.25,3.24-2,5.26-3a21.77,21.77,0,0,0,5.26-3.44,19.15,19.15,0,0,0,2.42-3.64,15.42,15.42,0,0,1,3.64-3.64c1.62-1.21,3.64-2.42,5.26-3.44s2.83-1.81,3.74-2.52,1.42-1.22,3.39-4.13a7.71,7.71,0,0,0-2.28-.42,27.34,27.34,0,0,1-4,.2c-1.22-.2-2-1-3-2.22s-2.22-2.84-3.23-3.85-1.82-1.41-2-1.82.2-.8.4-1.41a4.2,4.2,0,0,0,0-2.23,4.9,4.9,0,0,0-1.21-2.22,6.47,6.47,0,0,0-2.63-1.42c-1.21-.4-2.83-.8-3.84-1.21a2.75,2.75,0,0,1-1.62-1.21c-.2-.41-.2-.81-.4-1s-.61-.2-1.22-.41a4.39,4.39,0,0,0-2.42-.4c-1,.2-2.23,1-3.44,1.41a7.39,7.39,0,0,1-3.64.21,27.13,27.13,0,0,0-3.24-.61,4,4,0,0,0-1.41.4c-.2,0-.2-.4-.2-1.21v-3.23a15.53,15.53,0,0,1,.2-3.24c.2-.81.61-1.21.81-2a14.46,14.46,0,0,0,.2-3,8.46,8.46,0,0,1,.2-2.43c.2-.61.61-1,.61-1.42s-.41-.8-.81-1.21a3.61,3.61,0,0,0-1.42-1,11.76,11.76,0,0,0-3.23-.2c-1.82,0-4.65,0-6.88-.2s-3.84-.61-5.86-.81-4.45-.21-6.27-.61-3-1.21-4.45-1.62a17.5,17.5,0,0,0-4.65-.4,26.09,26.09,0,0,0-4.24.2,12.53,12.53,0,0,0-2.43,1,23.54,23.54,0,0,1-3.64,1,7.88,7.88,0,0,1-1.82.2,4,4,0,0,1-1.41-.2,20.18,20.18,0,0,1-2.43-1.11C119.43,207.77,119,207.55,118.51,207.27Z" transform="translate(-11.62 -18.88)"/><path class="cls-1" d="M246.85,125.59a8.47,8.47,0,0,1-2,1.31c-1,.51-2.23,1.11-7.08,2.33-1.21,1.21-1.21,2.42-1.62,3.43a4.36,4.36,0,0,1-1.61,2c-.41.21-.41-.2-.81-.4a3.58,3.58,0,0,0-2.43.2,14.4,14.4,0,0,0-3.84,2,12.78,12.78,0,0,0-1.82,2,1.5,1.5,0,0,1-1.21.4,1.68,1.68,0,0,0-1.42.61c-.61.6-1.41,1.82-2,2.42a1.68,1.68,0,0,1-1.42.61h-1.41a3.39,3.39,0,0,0-2.23.61c-.81.6-1.61,1.82-2.22,2.22s-1,0-1.62-.2-1.41-.2-2-.41a2,2,0,0,1-1.21-1c-.21-.4-.21-.81-.41-1s-.6-.2-1.21,0-1.42.61-2,.81a2.26,2.26,0,0,1-1.62,0c-.61-.2-1.42-.61-2.22-.81a10,10,0,0,0-2.43-.2h-2.22a3,3,0,0,1-1.42-.2,6.55,6.55,0,0,1-1.42-1.22,15.77,15.77,0,0,0-2-1.81,2.68,2.68,0,0,0-1.82-.41,13.49,13.49,0,0,0-2.83.2,10,10,0,0,0-2,1c-.81.41-2,.81-3.24,1.42a17.33,17.33,0,0,1-3.43,1.62,5.62,5.62,0,0,1-2.63-.41A10.06,10.06,0,0,1,173,142c-1.21-.6-2.83-1.82-4.25-2.62s-2.63-1.22-3.64-1.82a13.16,13.16,0,0,1-2.52-2.13l-3-3c-2.26,3.85-4.46,7.55-5.78,10.19a49.58,49.58,0,0,0-2.63,6.67,39,39,0,0,1-3.44,7.28c-1.41,2.23-3,3.84-4.65,6.67s-3.23,6.88-4.45,9.51a27.56,27.56,0,0,1-3,5.25c-1,1.42-2.22,3-3.43,4.66s-2.43,3.23-3.85,5.45a40,40,0,0,0-4.14,8.29c-1.11,3.24-1.72,6.88-5.36,10.52l-.32.4c.47.28.92.5,1.33.71a20.18,20.18,0,0,0,2.43,1.11,4,4,0,0,0,1.41.2,7.88,7.88,0,0,0,1.82-.2,23.54,23.54,0,0,0,3.64-1,12.53,12.53,0,0,1,2.43-1,26.09,26.09,0,0,1,4.24-.2,17.5,17.5,0,0,1,4.65.4c1.42.41,2.63,1.22,4.45,1.62s4.25.4,6.27.61,3.64.6,5.86.81,5.06.2,6.88.2a11.76,11.76,0,0,1,3.23.2,3.61,3.61,0,0,1,1.42,1c.4.41.81.81.81,1.21s-.41.81-.61,1.42a8.46,8.46,0,0,0-.2,2.43,14.46,14.46,0,0,1-.2,3c-.2.81-.61,1.21-.81,2a15.53,15.53,0,0,0-.2,3.24v3.23c0,.81,0,1.21.2,1.21a4,4,0,0,1,1.41-.4,27.13,27.13,0,0,1,3.24.61,7.39,7.39,0,0,0,3.64-.21c1.21-.4,2.43-1.21,3.44-1.41a4.39,4.39,0,0,1,2.42.4c.61.21,1,.21,1.22.41s.2.6.4,1a2.75,2.75,0,0,0,1.62,1.21c1,.41,2.63.81,3.84,1.21a6.47,6.47,0,0,1,2.63,1.42,4.9,4.9,0,0,1,1.21,2.22,4.2,4.2,0,0,1,0,2.23c-.2.61-.61,1-.4,1.41s1,.81,2,1.82,2.22,2.63,3.23,3.85,1.82,2,3,2.22a27.34,27.34,0,0,0,4-.2,7.71,7.71,0,0,1,2.28.42q.36.11.75.18a23.21,23.21,0,0,0,4.35.21h9.2c0-.41.41-.81,1.21-1.82a33.44,33.44,0,0,0,2.83-4.05c.81-1.41,1.22-2.63,1.62-3.23s.81-.61,2-.81,3.24-.61,4.45-.81,1.62-.2,1.82-.81a11.7,11.7,0,0,0,.2-2.83,3.19,3.19,0,0,1,.81-2.63,11.75,11.75,0,0,1,3.44-2c1-.4,1.42-.4,2-2.83s1.42-7.28,2-10.11,1-3.64,1-4.25-.41-1-1-1.61a21.28,21.28,0,0,0-2.22-2c-.81-.6-1.62-1-2-1.41s-.41-.81.2-1.82,1.82-2.63,2.63-3.84a24.33,24.33,0,0,0,1.62-2.83c.4-.81.81-1.62,1.21-2.63a29.66,29.66,0,0,0,1.21-3.84,23.49,23.49,0,0,0,.81-5.06,4.69,4.69,0,0,0-.81-2.83,8.41,8.41,0,0,0-1.21-1.41,3.68,3.68,0,0,1-1-1.42c-.2-.61-.2-1.42.81-3.24a60.88,60.88,0,0,1,4.45-6.47c1.41-1.82,2.22-2.62,2.42-3.43a5.19,5.19,0,0,0-.4-2.43,5,5,0,0,1,0-2.43,2.93,2.93,0,0,1,1.41-2,7,7,0,0,1,2.83-.4c.81,0,1.22,0,.81-1s-1.61-3-2.42-4.65a13,13,0,0,1-1.42-4.25,30.24,30.24,0,0,1-.2-4c0-1,0-1.42.61-2a48.45,48.45,0,0,0,3.63-3.33c1.53-1.61,3.47-4,6.91-8.28l-.23-.11a8.19,8.19,0,0,0-3.44-1,14.29,14.29,0,0,0-2.83.6,17.58,17.58,0,0,1-3.24.2,4.39,4.39,0,0,1-2.42-.4,8.34,8.34,0,0,1-1.82-2.53C248.78,128.85,247.84,127.42,246.85,125.59Z" transform="translate(-11.62 -18.88)"/><path class="cls-1" d="M159.59,132.38l.49-.83c2.42-4.14,4.85-8.39,8.49-15.67,1.21-2.43,3.64-4.85,5.26-6.67s2.42-3,3.43-3.64a9.49,9.49,0,0,1,3.44-.81,5.6,5.6,0,0,0,3.64-2c1.21-1.42,2.43-3.84,3.44-5.26s1.82-1.82,2.22-2.63a12.86,12.86,0,0,0,.61-3.44c.2-1.41.61-3,.81-5.25s.2-5.06,1.21-7.28,3-3.84,4.85-5.86a83.6,83.6,0,0,0,5.06-6.68,50.38,50.38,0,0,1,4.85-5.86,29.71,29.71,0,0,1,4.45-3.64c1.21-.81,2-1.21,4.25-2.63S222,50.37,224,48.75s2.43-2.42,4.65-3.23a86.72,86.72,0,0,1,9.1-2.23l1-.22c1.82.53,2.64.77,3.32.93a13.35,13.35,0,0,1,2.93.71,17.91,17.91,0,0,1,2.63,2,17.78,17.78,0,0,1,2.83,2.43,3.6,3.6,0,0,1,.61,2.42,12,12,0,0,1-.21,2.63,12.84,12.84,0,0,1-1,3,5.52,5.52,0,0,1-1.21,1.62,8.45,8.45,0,0,1-1.42,1.21,7.43,7.43,0,0,1-2.22,1,17.38,17.38,0,0,0-2,.4c-.41.2-.41.61-.61,1.42a7.41,7.41,0,0,0-.4,3,7.41,7.41,0,0,0,1.82,2.83,11.84,11.84,0,0,1,2,3.44,31.74,31.74,0,0,1,.61,3.23c.2.81.6,1.21,1.81,1.62a12,12,0,0,0,4.66.61,10,10,0,0,0,2.83-1.22c.6-.2,1,.2,1.21,1.42s.2,3.23.4,4.85a20.34,20.34,0,0,0,1,4,28.28,28.28,0,0,0,1.62,4,21.21,21.21,0,0,0,2.83,4.45,1.53,1.53,0,0,0,.71.44c-1.1,1.84-2.38,3.61-3.23,5a10.51,10.51,0,0,0-1.72,4.55,11.9,11.9,0,0,1-.7,3.5,2.46,2.46,0,0,1,.09,2.46,14,14,0,0,1-2.22,3.44c-1,1.21-2.23,2.42-3.64,4.24s-3,4.25-4.25,5.66a8.08,8.08,0,0,1-3,2.33c-1,.51-2.23,1.11-7.08,2.33-1.21,1.21-1.21,2.42-1.62,3.43a4.36,4.36,0,0,1-1.61,2c-.41.21-.41-.2-.81-.4a3.58,3.58,0,0,0-2.43.2,14.4,14.4,0,0,0-3.84,2,12.78,12.78,0,0,0-1.82,2,1.5,1.5,0,0,1-1.21.4,1.68,1.68,0,0,0-1.42.61c-.61.6-1.41,1.82-2,2.42a1.68,1.68,0,0,1-1.42.61h-1.41a3.39,3.39,0,0,0-2.23.61c-.81.6-1.61,1.82-2.22,2.22s-1,0-1.62-.2-1.41-.2-2-.41a2,2,0,0,1-1.21-1c-.21-.4-.21-.81-.41-1s-.6-.2-1.21,0-1.42.61-2,.81a2.26,2.26,0,0,1-1.62,0c-.61-.2-1.42-.61-2.22-.81a10,10,0,0,0-2.43-.2h-2.22a3,3,0,0,1-1.42-.2,6.55,6.55,0,0,1-1.42-1.22,15.77,15.77,0,0,0-2-1.81,2.68,2.68,0,0,0-1.82-.41,13.49,13.49,0,0,0-2.83.2,10,10,0,0,0-2,1c-.81.41-2,.81-3.24,1.42a17.33,17.33,0,0,1-3.43,1.62,5.62,5.62,0,0,1-2.63-.41A10.06,10.06,0,0,1,173,142c-1.21-.6-2.83-1.82-4.25-2.62s-2.63-1.22-3.64-1.82a13.16,13.16,0,0,1-2.52-2.13Z" transform="translate(-11.62 -18.88)"/><path class="cls-1" d="M238.75,43.07c1.82.53,2.64.77,3.32.93a13.35,13.35,0,0,1,2.93.71,17.91,17.91,0,0,1,2.63,2,17.78,17.78,0,0,1,2.83,2.43,3.6,3.6,0,0,1,.61,2.42,12,12,0,0,1-.21,2.63,12.84,12.84,0,0,1-1,3,5.52,5.52,0,0,1-1.21,1.62,8.45,8.45,0,0,1-1.42,1.21,7.43,7.43,0,0,1-2.22,1,17.38,17.38,0,0,0-2,.4c-.41.2-.41.61-.61,1.42a7.41,7.41,0,0,0-.4,3,7.41,7.41,0,0,0,1.82,2.83,11.84,11.84,0,0,1,2,3.44,31.74,31.74,0,0,1,.61,3.23c.2.81.6,1.21,1.81,1.62a12,12,0,0,0,4.66.61,10,10,0,0,0,2.83-1.22c.6-.2,1,.2,1.21,1.42s.2,3.23.4,4.85a20.34,20.34,0,0,0,1,4,28.28,28.28,0,0,0,1.62,4,21.21,21.21,0,0,0,2.83,4.45,1.53,1.53,0,0,0,.71.44c.47.08,1-.24,1.92-.65,1.42-.6,3.84-1.41,5.87-2.22s3.63-1.62,4.85-2.22,2-1,2.22-2.23a33.22,33.22,0,0,0-.2-4.45c0-1.21.4-1.61,3.64-3.64s9.3-5.66,12.74-7.88,4.24-3,4.85-4,1-2.22,1.42-2.42.8.61,1.61.81a3.84,3.84,0,0,0,2.83-.81,5.72,5.72,0,0,0,1.62-2.23,6.16,6.16,0,0,1,2.23-2.62,45.62,45.62,0,0,1,5.46-3,11.36,11.36,0,0,1,3.74-1.41,12.51,12.51,0,0,1,4.32.21h0a11.39,11.39,0,0,1,2.43-.61,4.61,4.61,0,0,0,2-1,1.17,1.17,0,0,0,.2-1.41,4.12,4.12,0,0,0-1.41-2,8,8,0,0,0-3-1.21c-1-.2-1.83-.2-2.43-1s-1-2.43-1.82-3.84a7.57,7.57,0,0,0-3.44-3.24,17.76,17.76,0,0,0-4.45-.81,20.73,20.73,0,0,1-3.84-1c-1.21-.4-2.43-.8-3.44-1.21a13.48,13.48,0,0,0-3-1c-1.21-.2-2.83-.2-4.25-.4a7.69,7.69,0,0,1-3.43-1.22c-.81-.6-1.22-1.41-2.33-2.42a15,15,0,0,1-4.14-4.65c-6.07-1.22-6.07-1.82-6.47-3.14a18.38,18.38,0,0,0-2.23-4.75,5.35,5.35,0,0,0-3.84-2.43,10,10,0,0,0-5.86,1.42A70.51,70.51,0,0,0,261,25.7c-2.22,1.62-4.24,2.83-5.46,4.25a11.6,11.6,0,0,0-2,4.24,10.6,10.6,0,0,1-1.21,2.63,5.51,5.51,0,0,1-2.22,1.82,54.16,54.16,0,0,1-5.87,2.83A31.43,31.43,0,0,1,238.75,43.07Z" transform="translate(-11.62 -18.88)"/><path class="cls-1" d="M145.72,244.88c.2,0,.61.41,1,.61a2.62,2.62,0,0,0,1.22.2h1.41a5.05,5.05,0,0,1,1.82.2c.41.2.41.61.61.81s.6.2.81.41a.91.91,0,0,1,0,1c-.21.4-.61.8-.61,1s.4.2.81.2a1.53,1.53,0,0,1,1,.2c.2.2.2.61.4,1s.61.81.61,1.22-.4.81-.81,1.21a5.4,5.4,0,0,0-1,1.21c-.2.41-.2.81-.4.81s-.61-.4-.81-.81-.2-.81-.41-1.21a1.34,1.34,0,0,0-1-.81,1.36,1.36,0,0,0-1,.81c-.2.4-.2.81-.4,1s-.61.2-.81.4-.2.61-.41.81a.87.87,0,0,1-1,0,2.4,2.4,0,0,1-1-1,2.58,2.58,0,0,1-.2-1.21,1.53,1.53,0,0,0-.2-1,.91.91,0,0,0-1,0c-.41.2-.81.61-1,.61s-.21-.41-.41-.61-.61-.2-1-.41a2.4,2.4,0,0,1-1-1c-.2-.4-.2-.81-.41-1.41a7.87,7.87,0,0,1-.6-2,.93.93,0,0,1,.81-1c.4,0,.81.41,1.21.81s.81.81,1,.81.2-.4.41-.6.6-.21,1-.21h1.21c.4,0,.81,0,.81-.2s-.41-.61-.61-1S145.52,244.88,145.72,244.88Z" transform="translate(-11.62 -18.88)"/><path class="cls-1" d="M290.56,34.56a18.23,18.23,0,0,0-.88,3.07c-.2.61-.6.61-1.21.61h-2c-.61,0-1,0-1.42.6a10.66,10.66,0,0,0-1,2.63c-.2.81-.2,1.22,0,1.42s.61.2,1,.6.81,1.22,1.62,2.23,2,2.22,2.83,3.23a12.48,12.48,0,0,0,1.82,2.23,7.28,7.28,0,0,0,2.63.6c1.21.21,2.83.61,4,.81a5.4,5.4,0,0,0,2.63,0,3.58,3.58,0,0,0,1.42-1,5.4,5.4,0,0,0,1-1.21,2.6,2.6,0,0,0,.2-1.21,1.51,1.51,0,0,0-.2-1c-.2-.21-.61-.21-1-.41a3.37,3.37,0,0,1-1.21-1.21,9.83,9.83,0,0,1-1-2,1.2,1.2,0,0,1,.21-1.42,4.55,4.55,0,0,1,2.22-1,15.27,15.27,0,0,0,2.83-.51c.4-.2.54-.53,1.29-1.08-1-.35-2-.69-2.91-1a13.48,13.48,0,0,0-3-1c-1.21-.2-2.83-.2-4.25-.4a7.69,7.69,0,0,1-3.43-1.22C292,36.25,291.55,35.49,290.56,34.56Z" transform="translate(-11.62 -18.88)"/><path class="cls-1" d="M275.13,31.77a2.12,2.12,0,0,0-1.27-.71,4.15,4.15,0,0,0-1.77.05c-.4.15-.4.46-.8.66s-1.22.3-1.67.5-.56.51-.66,1.11a15,15,0,0,1-.35,1.93c-.16.4-.36.3-.86.25a4.49,4.49,0,0,0-2.33.4,7.81,7.81,0,0,0-2.83,2.23,6.33,6.33,0,0,0-.81,2.32,8.37,8.37,0,0,1-.81,1.57c-.2.4-.2.71.41,1.11a10.91,10.91,0,0,0,2.52,1.11c.71.21.91.1,1.37.51a11.36,11.36,0,0,1,1.52,1.87c.35.55.35.76-.1,1.52a15.43,15.43,0,0,0-1.77,3.38,6.45,6.45,0,0,0-.15,3.24c.15.6.35.5.65.45a4.05,4.05,0,0,0,1.16-.25c.46-.2,1-.61,1.37-.76a.81.81,0,0,1,.91.15c.2.21.3.51.5.66s.51.15.71.56.31,1.21.56,1.82.66,1,.76,1.31-.1.51.3.71a20.29,20.29,0,0,1,2.33.91A19,19,0,0,0,276.64,62a7.41,7.41,0,0,0,2.53.1c.61,0,.81.2,1.11-.1a4.19,4.19,0,0,0,.81-1.57c.1-.46-.1-.56-.71-.56a9.88,9.88,0,0,1-2.12,0c-.5-.15-.5-.55-.5-1a4,4,0,0,1,.2-1.41,5.11,5.11,0,0,1,1-1.82c.4-.41.81-.41,1-.61s.2-.61.4-.81.61-.2,1.22-.2a7,7,0,0,1,2,.2c.61.2,1,.61,1.21.61s.2-.41.2-.81a1.48,1.48,0,0,0-.4-1.21,13.66,13.66,0,0,0-1.82-1.22,3.37,3.37,0,0,1-1.21-1.21,11.1,11.1,0,0,1-.41-1.42,17.78,17.78,0,0,1-.81-2.42,6.67,6.67,0,0,1,0-2.83c.21-.61.61-.61.41-.81s-1-.61-1.42-1a1.22,1.22,0,0,1-.2-1.42,7.93,7.93,0,0,0,.61-2c0-.56-.41-.86-1-1.26A6,6,0,0,1,277,35.66a10.44,10.44,0,0,1-.66-2.17A4.86,4.86,0,0,0,275.13,31.77Z" transform="translate(-11.62 -18.88)"/><path class="cls-1" d="M158.06,165.42c0-.2.4-.61.8-1a5.5,5.5,0,0,0,1-1.22,1.3,1.3,0,0,0,0-1.21c-.21-.4-.61-.81-.61-1.21s.4-.81.61-1.22.2-.8.8-1a7.61,7.61,0,0,1,3,0c1.21.21,2.42.61,3.64.81a8.7,8.7,0,0,0,3.23,0c.81-.2,1.22-.6,1.62-.6s.81.4.61.8-1,.81-1,1.22.8.81,1.61.81a4.31,4.31,0,0,0,2.23-.81,8.85,8.85,0,0,0,1.41-1.22,3.79,3.79,0,0,1,1.42-1,4.16,4.16,0,0,1,2.22,0,13.18,13.18,0,0,1,2.43,1,11.15,11.15,0,0,1,1.82,1c.2.2-.2.2-.61.4a3.45,3.45,0,0,0-1.21,1.21,9.14,9.14,0,0,0-1,2c-.21.6-.21,1-.81,1s-1.82-.41-2.83-.41-1.82.41-2.63.41-1.62-.41-2.23-.41a1,1,0,0,0-1,1,7.67,7.67,0,0,0,.61,2c.2.61.2,1-.2,1.22a17.84,17.84,0,0,1-2,.4c-.81.2-1.62.61-2.23.81s-1,.2-1.41.61-.81,1.21-1.22,1.21-.81-.81-1.41-1.21-1.42-.41-1.82-.81-.41-1.21-.81-1.62-1.21-.4-1.82-.61a2,2,0,0,1-1.21-1c-.21-.4-.21-.81-.41-1S158.06,165.62,158.06,165.42Z" transform="translate(-11.62 -18.88)"/><path class="cls-1" d="M129.32,343.69l.43.57a18.07,18.07,0,0,1,2,3.54,2.92,2.92,0,0,1,.3,1.92c-.1.3-.3.3-.91.5a3,3,0,0,0-1.92,1.42c-.3.81.1,2,1.32,3.84a64.78,64.78,0,0,0,4.65,5.87c1.41,1.61,2.22,2.42,3,3.23l2.28,2.28a8,8,0,0,1,1.36,1.56.72.72,0,0,1,0,.86c-.15.15-.35.15-1-.2s-1.62-1.06-2.12-1.31-.51-.06-.51.2,0,.55.61,1.06a10.88,10.88,0,0,0,2.83,1.57,11.38,11.38,0,0,0,2.13.44,6.74,6.74,0,0,0,.7-1.3c.2-.31.61-.31,1-.31a1.53,1.53,0,0,0,1-.2c.2-.2.2-.61.4-.81s.61-.2.81-.4.21-.61.41-.81.6-.2.6-.41-.4-.6-.6-1-.2-.81-.41-1-.6-.2-.81-.4-.2-.61-.4-1a5.44,5.44,0,0,0-1-1.22c-.4-.4-.81-.8-1-.8s-.2.4-.41.6a.61.61,0,0,1-.8,0c-.21-.2-.21-.6-.61-.81a2.26,2.26,0,0,0-1.62,0c-.4.21-.4.61-.61.81a2.65,2.65,0,0,1-2,0,.62.62,0,0,1,0-.81c.2-.2.61-.2,1-.4s.81-.61.81-.81-.4-.2-.81-.4a2.52,2.52,0,0,1-1-1c-.2-.41-.2-.81.2-1a2.26,2.26,0,0,1,1.62,0c.41.21.41.61.61.81s.61.21.81-.6a11,11,0,0,0,0-3.64,6.43,6.43,0,0,0-1-2.63c-.41-.61-.81-1-1-1.42s-.21-.81-.61-1-1.21-.2-1.62-.4a.5.5,0,0,1-.2-.81c.2-.2.61-.2,1-.41a1.34,1.34,0,0,0,.81-1c0-.4-.41-.81-.61-1.21a.91.91,0,0,1,0-1,1.53,1.53,0,0,1,1-.2c.41,0,.81,0,1-.41a2.69,2.69,0,0,0,0-1.82,8.84,8.84,0,0,0-.8-1.41c-.21-.41-.21-.81-.41-1s-.61-.21-.81-.41-.2-.6-.4-.6a.9.9,0,0,0-.61.8c0,.41.41.81.61,1.22s.2.81-.2,1-1.22.2-1.62.4-.41.61-.61.81a.91.91,0,0,1-1,0,5.15,5.15,0,0,1-1.21-1c-.41-.4-.81-.81-1.21-.81s-.81.41-1.32.91A8.53,8.53,0,0,0,129.32,343.69Z" transform="translate(-11.62 -18.88)"/><path class="cls-1" d="M117.68,322.25c.37-.56.65-.91.9-1.25a6.83,6.83,0,0,1-.66-.3c-.3-.2-.3-.6-.3-1a1.53,1.53,0,0,1,.2-1c.2-.2.61-.2.81-.4s.2-.61.4-.81a.91.91,0,0,1,1,0c.41.2.81.61,1.22.61a.9.9,0,0,0,.8-.61c0-.2-.4-.2-.6-.4a1.56,1.56,0,0,1-.2-1c0-.4,0-.81.2-.81s.6.41,1,.61a.91.91,0,0,0,1,0,2.65,2.65,0,0,0,0-2c-.2-.2-.61-.2-1-.4s-.81-.61-1.21-.81-.81-.21-1-.41-.21-.6-.21-1.21a6.59,6.59,0,0,1,.21-2,2.07,2.07,0,0,1,1-1.22c.4-.2.8-.2,1-.4a.91.91,0,0,0,0-1,2.46,2.46,0,0,0-1-1,1.32,1.32,0,0,0-1.22,0c-.4.2-.81.6-1,.6s-.2-.4-.2-.8,0-.81-.4-1-1.22-.2-1.62-.4-.41-.61-.61-.81a.62.62,0,0,0-.81,0c-.2.2-.2.61-.81.61a7.77,7.77,0,0,1-2.62-.81,17.5,17.5,0,0,0-1.82-1,4.2,4.2,0,0,0-2.23,0,4.34,4.34,0,0,0-2.32,1.41c-.5.57-1,1.35-2.45,3a23,23,0,0,0,2.85,3.14,149.08,149.08,0,0,1,11.63,12.84Z" transform="translate(-11.62 -18.88)"/><path class="cls-1" d="M194.2,76.49a10.28,10.28,0,0,0-1.57,2.39c-1,2.22-1,5.05-1.21,7.28s-.61,3.84-.81,5.25c-.13.91-.18,1.73-.3,2.42a2.16,2.16,0,0,0,1-.9c.3-.5.3-.91.5-1.11a.62.62,0,0,1,.81,0c.2.2.2.61.41,1a8.55,8.55,0,0,1,.8,1.42c.2.6.21,1.39.6,1.8a4.09,4.09,0,0,0,1-2.31,22.59,22.59,0,0,1,1-3.13,7.09,7.09,0,0,1,1.42-2.43,12,12,0,0,1,2-1.42,7.55,7.55,0,0,1,1.62-1,2.82,2.82,0,0,1,1.82,0c.4.21.4.61.6.81s.61.2,1,.41a2.46,2.46,0,0,1,1,1c.2.4.2.81.4,1a.62.62,0,0,0,.81,0,1.53,1.53,0,0,0,.2-1,2.62,2.62,0,0,0-.2-1.22,8.39,8.39,0,0,1-.81-1.41c-.2-.61-.2-1.42-.4-2.23a4.92,4.92,0,0,0-1.22-2.22,4.71,4.71,0,0,0-2.22-1.21,10.82,10.82,0,0,0-2.63-.2,5.93,5.93,0,0,1-2.83-.41c-.61-.4-.61-1.21-.91-1.62S195.52,77.08,194.2,76.49Z" transform="translate(-11.62 -18.88)"/><path class="cls-1" d="M223.52,264.76c-1.19.41-2,.54-3,.95a29.28,29.28,0,0,0-4.24,2.63,16.32,16.32,0,0,0-2.83,2c-.81.81-1.62,2-2.43,3s-1.62,1.82-2.22,2.63a11,11,0,0,0-1.42,2.63,20,20,0,0,0-1,3.23,42.55,42.55,0,0,0-.4,4.45c-.21,2.63-.61,7.08-.81,10.11s-.2,4.65-.41,5.66a3,3,0,0,1-1,1.82l-1.21,1.22a8,8,0,0,0-1.21,1.41,7.66,7.66,0,0,0-1,2.22,5,5,0,0,0,0,2.43,7.6,7.6,0,0,0,1,2.23,6.7,6.7,0,0,1,1.21,2.42c.4,1.42.81,3.84,1.21,5.26a4.72,4.72,0,0,0,2,2.83,37.87,37.87,0,0,1,4.25,3.84,4.14,4.14,0,0,1,1,3.24,27.34,27.34,0,0,1-.2,4,4.62,4.62,0,0,1-1.21,2.63,9.87,9.87,0,0,1-3.44,1.82,54.74,54.74,0,0,0-6.88,3c-1.61,1-1.61,1.82-2,3.64s-1.21,4.65-2,7.08-1.62,4.45-2,6.06a8.41,8.41,0,0,0-.2,3.85,33.16,33.16,0,0,0,1.41,4,84.29,84.29,0,0,1,2.63,8.49,22.16,22.16,0,0,1,.61,5.66,16.6,16.6,0,0,0,.2,3.44,1.72,1.72,0,0,0,1.41,1.42,10.06,10.06,0,0,1,2.63.6c.61.41.61,1.22.61,2.23a14.46,14.46,0,0,0,.2,3A3.67,3.67,0,0,0,204,393.9a9.87,9.87,0,0,0,2.23,1.82c.81.4,1.62.4,2.63.81s2.22,1.21,3.43,1.62a14.37,14.37,0,0,0,4.55.4,11.49,11.49,0,0,1,1.53.07" transform="translate(-11.62 -18.88)"/><path class="cls-1" d="M257.85,108.77a2.46,2.46,0,0,1,.09,2.46,14,14,0,0,1-2.22,3.44c-1,1.21-2.23,2.42-3.64,4.24s-3,4.25-4.25,5.66a8.08,8.08,0,0,1-3,2.33c-1,.51-2.23,1.11-7.08,2.33" transform="translate(-11.62 -18.88)"/><path class="cls-1" d="M263.5,95.7c-1.1,1.84-2.38,3.61-3.23,5a10.51,10.51,0,0,0-1.72,4.55,11.9,11.9,0,0,1-.7,3.5" transform="translate(-11.62 -18.88)"/><path class="cls-1" d="M263.5,95.7c.47.08,1-.24,1.92-.65,1.42-.6,3.84-1.41,5.87-2.22s3.63-1.62,4.85-2.22,2-1,2.22-2.23a33.22,33.22,0,0,0-.2-4.45c0-1.21.4-1.61,3.64-3.64s9.3-5.66,12.74-7.88,4.24-3,4.85-4,1-2.22,1.42-2.42.8.61,1.61.81a3.84,3.84,0,0,0,2.83-.81,5.72,5.72,0,0,0,1.62-2.23,6.16,6.16,0,0,1,2.23-2.62,45.62,45.62,0,0,1,5.46-3,11.36,11.36,0,0,1,3.74-1.41,12.51,12.51,0,0,1,4.32.21" transform="translate(-11.62 -18.88)"/><path class="cls-1" d="M237.72,129.23c-1.21,1.21-1.21,2.42-1.62,3.43a4.36,4.36,0,0,1-1.61,2c-.41.21-.41-.2-.81-.4a3.58,3.58,0,0,0-2.43.2,14.4,14.4,0,0,0-3.84,2,12.78,12.78,0,0,0-1.82,2,1.5,1.5,0,0,1-1.21.4,1.68,1.68,0,0,0-1.42.61c-.61.6-1.41,1.82-2,2.42a1.68,1.68,0,0,1-1.42.61h-1.41a3.39,3.39,0,0,0-2.23.61c-.81.6-1.61,1.82-2.22,2.22s-1,0-1.62-.2-1.41-.2-2-.41a2,2,0,0,1-1.21-1c-.21-.4-.21-.81-.41-1s-.6-.2-1.21,0-1.42.61-2,.81a2.26,2.26,0,0,1-1.62,0c-.61-.2-1.42-.61-2.22-.81a10,10,0,0,0-2.43-.2h-2.22a3,3,0,0,1-1.42-.2,6.55,6.55,0,0,1-1.42-1.22,15.77,15.77,0,0,0-2-1.81,2.68,2.68,0,0,0-1.82-.41,13.49,13.49,0,0,0-2.83.2,10,10,0,0,0-2,1c-.81.41-2,.81-3.24,1.42a17.33,17.33,0,0,1-3.43,1.62,5.62,5.62,0,0,1-2.63-.41A10.06,10.06,0,0,1,173,142c-1.21-.6-2.83-1.82-4.25-2.62s-2.63-1.22-3.64-1.82a13.16,13.16,0,0,1-2.52-2.13l-3-3" transform="translate(-11.62 -18.88)"/><path class="cls-1" d="M263.43,133.18c-3.44,4.29-5.38,6.67-6.91,8.28a48.45,48.45,0,0,1-3.63,3.33c-.61.61-.61,1-.61,2a30.24,30.24,0,0,0,.2,4,13,13,0,0,0,1.42,4.25c.81,1.61,2,3.64,2.42,4.65s0,1-.81,1a7,7,0,0,0-2.83.4,2.93,2.93,0,0,0-1.41,2,5,5,0,0,0,0,2.43,5.19,5.19,0,0,1,.4,2.43c-.2.81-1,1.61-2.42,3.43A60.88,60.88,0,0,0,244.8,178c-1,1.82-1,2.63-.81,3.24a3.68,3.68,0,0,0,1,1.42,8.41,8.41,0,0,1,1.21,1.41,4.69,4.69,0,0,1,.81,2.83,23.49,23.49,0,0,1-.81,5.06,29.66,29.66,0,0,1-1.21,3.84c-.4,1-.81,1.82-1.21,2.63a24.33,24.33,0,0,1-1.62,2.83c-.81,1.21-2,2.83-2.63,3.84s-.61,1.41-.2,1.82,1.21.81,2,1.41a21.28,21.28,0,0,1,2.22,2c.61.6,1,1,1,1.61s-.41,1.42-1,4.25-1.41,7.68-2,10.11-1,2.43-2,2.83a11.75,11.75,0,0,0-3.44,2,3.19,3.19,0,0,0-.81,2.63,11.7,11.7,0,0,1-.2,2.83c-.2.61-.6.61-1.82.81s-3.23.61-4.45.81-1.61.2-2,.81-.81,1.82-1.62,3.23a33.44,33.44,0,0,1-2.83,4.05c-.8,1-1.21,1.41-1.21,1.82s.41.8.81,1.21a5.4,5.4,0,0,1,1,1.21c.2.41.2.81-.2,1a15.55,15.55,0,0,1-2,.41c-.81.2-1.62.61-2.43.81a17.38,17.38,0,0,0-2,.4c-.41.2-.41.61-.41,1.21a6.69,6.69,0,0,0,.21,2c.2.6.6,1,1.61,1.21s2.63.2,3.85.4,2,.61,2.22,1.22-.2,1.41-.4,2.42a5.85,5.85,0,0,0,.15,3.1" transform="translate(-11.62 -18.88)"/><path class="cls-1" d="M117.68,322.25c.45-.68.76-1,1-1.44.5-.71.91-1.52,1.31-1.52s.81.81,1.82,1.41a8.75,8.75,0,0,0,4.25,1c1.62,0,3.23-.41,4.24-.21s1.42,1,2.23,1.42a5.68,5.68,0,0,0,3.23.2c1.22-.2,2.43-.61,3.44-.81a15.56,15.56,0,0,0,2.23-.4c.4-.2.4-.61.6-1.22a5.41,5.41,0,0,1,1.22-2,3.22,3.22,0,0,1,2-1,3,3,0,0,1,1.41.61.91.91,0,0,0,1,0c.21-.2.21-.61.21-1.42a16.48,16.48,0,0,1,.2-3,4.46,4.46,0,0,1,1-2.22c.4-.41.81-.41,1.62-.61a16,16,0,0,0,2.83-1,2.88,2.88,0,0,0,1.41-1.22,3.46,3.46,0,0,0,.2-1.61,10.32,10.32,0,0,1,.21-2.63c.2-.61.6-.61,1.82-1.82s3.23-3.64,5.66-6.07,5.26-4.85,6.87-6.67a9.37,9.37,0,0,0,2.43-4.65,51.2,51.2,0,0,1,1.41-5.26c.61-1.62,1.42-2.83,2-4.24s1-3,2.22-4.25,3.24-2,5.26-3a21.77,21.77,0,0,0,5.26-3.44,19.15,19.15,0,0,0,2.42-3.64,15.42,15.42,0,0,1,3.64-3.64c1.62-1.21,3.64-2.42,5.26-3.44s2.83-1.81,3.74-2.52,1.42-1.22,3.39-4.13" transform="translate(-11.62 -18.88)"/><path class="cls-1" d="M118.51,207.27c.47.28.92.5,1.33.71a20.18,20.18,0,0,0,2.43,1.11,4,4,0,0,0,1.41.2,7.88,7.88,0,0,0,1.82-.2,23.54,23.54,0,0,0,3.64-1,12.53,12.53,0,0,1,2.43-1,26.09,26.09,0,0,1,4.24-.2,17.5,17.5,0,0,1,4.65.4c1.42.41,2.63,1.22,4.45,1.62s4.25.4,6.27.61,3.64.6,5.86.81,5.06.2,6.88.2a11.76,11.76,0,0,1,3.23.2,3.61,3.61,0,0,1,1.42,1c.4.41.81.81.81,1.21s-.41.81-.61,1.42a8.46,8.46,0,0,0-.2,2.43,14.46,14.46,0,0,1-.2,3c-.2.81-.61,1.21-.81,2a15.53,15.53,0,0,0-.2,3.24v3.23c0,.81,0,1.21.2,1.21a4,4,0,0,1,1.41-.4,27.13,27.13,0,0,1,3.24.61,7.39,7.39,0,0,0,3.64-.21c1.21-.4,2.43-1.21,3.44-1.41a4.39,4.39,0,0,1,2.42.4c.61.21,1,.21,1.22.41s.2.6.4,1a2.75,2.75,0,0,0,1.62,1.21c1,.41,2.63.81,3.84,1.21a6.47,6.47,0,0,1,2.63,1.42,4.9,4.9,0,0,1,1.21,2.22,4.2,4.2,0,0,1,0,2.23c-.2.61-.61,1-.4,1.41s1,.81,2,1.82,2.22,2.63,3.23,3.85,1.82,2,3,2.22a27.34,27.34,0,0,0,4-.2,7.71,7.71,0,0,1,2.28.42" transform="translate(-11.62 -18.88)"/><path class="cls-1" d="M206.84,247.73q.36.11.75.18a23.21,23.21,0,0,0,4.35.21h9.2" transform="translate(-11.62 -18.88)"/><path class="cls-1" d="M223.52,264.76a.78.78,0,0,0,0,.14c.4,1,1.21,1.82,3.64,3.23s6.47,3.44,8.89,4.86,3.24,2.22,3.84,2.42,1-.2,1.62-.4a2.41,2.41,0,0,1,2,.2c.61.4,1,1.21,2.84,2.63a51.73,51.73,0,0,0,7.07,4.45,6.87,6.87,0,0,0,3.64,1,5.67,5.67,0,0,0,2-.2c.41-.21.41-.61.61-1a8.39,8.39,0,0,0,.81-1.41c.2-.61.2-1.42,1.41-5.66s3.64-11.93,5.06-16.18,1.82-5,2-5.66a4.48,4.48,0,0,0,.2-1.62,4.79,4.79,0,0,0-.4-2.22c-.41-.81-1.21-1.62-1.42-2s.21-.41,1.82-1.22,4.45-2.42,6.07-3,2-.2,2.53.3a19,19,0,0,0,3.25,2.53" transform="translate(-11.62 -18.88)"/><path class="cls-1" d="M246.85,125.59c1,1.83,1.93,3.26,2.6,4.34a8.34,8.34,0,0,0,1.82,2.53,4.39,4.39,0,0,0,2.42.4,17.58,17.58,0,0,0,3.24-.2,14.29,14.29,0,0,1,2.83-.6,8.19,8.19,0,0,1,3.44,1,23,23,0,0,0,3.84,1.82,39.77,39.77,0,0,0,4,.6,7.86,7.86,0,0,1,2.23,1,17.19,17.19,0,0,0,3.84,1.22,32.07,32.07,0,0,0,5.66.81,3.52,3.52,0,0,0,2.63-1c.81-.61,2-1.42,2.83-2s1.21-1,1.62-1,.81.41,1.41.81a4.48,4.48,0,0,0,2.63.81c1.21,0,2.83-.4,4.55-.3a51.9,51.9,0,0,1,6.48,1.27" transform="translate(-11.62 -18.88)"/><path class="cls-1" d="M238.75,43.07c1.82.53,2.64.77,3.32.93a13.35,13.35,0,0,1,2.93.71,17.91,17.91,0,0,1,2.63,2,17.78,17.78,0,0,1,2.83,2.43,3.6,3.6,0,0,1,.61,2.42,12,12,0,0,1-.21,2.63,12.84,12.84,0,0,1-1,3,5.52,5.52,0,0,1-1.21,1.62,8.45,8.45,0,0,1-1.42,1.21,7.43,7.43,0,0,1-2.22,1,17.38,17.38,0,0,0-2,.4c-.41.2-.41.61-.61,1.42a7.41,7.41,0,0,0-.4,3,7.41,7.41,0,0,0,1.82,2.83,11.84,11.84,0,0,1,2,3.44,31.74,31.74,0,0,1,.61,3.23c.2.81.6,1.21,1.81,1.62a12,12,0,0,0,4.66.61,10,10,0,0,0,2.83-1.22c.6-.2,1,.2,1.21,1.42s.2,3.23.4,4.85a20.34,20.34,0,0,0,1,4,28.28,28.28,0,0,0,1.62,4,21.21,21.21,0,0,0,2.83,4.45,1.53,1.53,0,0,0,.71.44" transform="translate(-11.62 -18.88)"/><path class="cls-1" d="M203.42,65.15a23.73,23.73,0,0,1,2.76.69c1.21.3,2.42.3,3.84.71a41.55,41.55,0,0,1,4.45,1.81,14.15,14.15,0,0,1,3.84,2,31.42,31.42,0,0,1,3.44,3.84c1,1.21,1.82,2,2.42,2.83A19.21,19.21,0,0,0,226,79.49a11.3,11.3,0,0,0,4.25,2.42c2.22.81,5.46,1.62,7.48,2.23a10.42,10.42,0,0,1,3.64,1.61A4.71,4.71,0,0,1,243.18,88c.2.81-.2,1.62-.4,2.83s-.21,2.83-.41,4-.6,2-.4,2.63,1,1,2.63,2.22,4,3.24,5.86,4.45a29,29,0,0,0,4.25,2.23,9,9,0,0,1,3,2.22,1.63,1.63,0,0,1,.11.17" transform="translate(-11.62 -18.88)"/><path class="cls-1" d="M190.31,93.83a2.16,2.16,0,0,0,1-.9c.3-.5.3-.91.5-1.11a.62.62,0,0,1,.81,0c.2.2.2.61.41,1a8.55,8.55,0,0,1,.8,1.42c.21.6.21,1.41.61,1.82s1.21.4,2.23.6,2.22.61,3.23.81a6.94,6.94,0,0,1,2.43.61c.6.4,1,1.21,2.42,2.42s3.84,2.83,5.46,4,2.43,2,3.24,2.63a6.87,6.87,0,0,0,2.42,1.21c.81.2,1.62.2,2.23.4a24,24,0,0,0,2.22,1c1.22.41,3.24.81,4.85,1.22s2.84.81,3.64,1,1.22.2,1.82.4a6.24,6.24,0,0,1,2.43,1.62,28.44,28.44,0,0,1,3,3.84,9.39,9.39,0,0,0,1.82,2.43c.61.4,1.42.4,1.62.61s-.2.6-.4,1.21a8,8,0,0,0-.21,2.42,10.78,10.78,0,0,1-.3,3.14c-.17.53-.45,1-.66,1.45" transform="translate(-11.62 -18.88)"/><path class="cls-1" d="M194.44,96.05a4.09,4.09,0,0,0,1-2.31,22.59,22.59,0,0,1,1-3.13,7.09,7.09,0,0,1,1.42-2.43,12,12,0,0,1,2-1.42,7.55,7.55,0,0,1,1.62-1,2.82,2.82,0,0,1,1.82,0c.4.21.4.61.6.81s.61.2,1,.41a2.46,2.46,0,0,1,1,1c.2.4.2.81.4,1a.62.62,0,0,0,.81,0,1.53,1.53,0,0,0,.2-1,2.62,2.62,0,0,0-.2-1.22,8.39,8.39,0,0,1-.81-1.41c-.2-.61-.2-1.42-.4-2.23a4.92,4.92,0,0,0-1.22-2.22,4.71,4.71,0,0,0-2.22-1.21,10.82,10.82,0,0,0-2.63-.2,5.93,5.93,0,0,1-2.83-.41c-.61-.4-.61-1.21-.91-1.62s-.65-.38-2-1" transform="translate(-11.62 -18.88)"/><path class="cls-1" d="M164.74,177.88a3.81,3.81,0,0,1-1.33.78c-.91.31-2.12.31-2.73.51s-.6.6-.4,1a8.81,8.81,0,0,1,.81,1.41,25.43,25.43,0,0,1,.4,2.63,22.18,22.18,0,0,0,1,3.84,12.85,12.85,0,0,1,1,2.43,16.27,16.27,0,0,1,0,4.45c-.21,1.82-.61,3.84-.61,5.05a1.87,1.87,0,0,0,1.21,2,10.67,10.67,0,0,1,2.63,1.41c.61.61.61,1.42,1,2a2.48,2.48,0,0,0,2,1,7.28,7.28,0,0,0,2.23-.6c.6-.2,1-.2,1.21,0s.2.6.2,1.21a6.9,6.9,0,0,1-.2,2,2.11,2.11,0,0,1-1,1.22,3.51,3.51,0,0,1-1.62.2,4,4,0,0,0-2.48.77" transform="translate(-11.62 -18.88)"/><path class="cls-1" d="M251.33,163a3.35,3.35,0,0,0-2.89-1h-5.06a46.31,46.31,0,0,1-5.66-.2c-1.21-.2-1.21-.61-1.41-1.21a8.76,8.76,0,0,0-1.82-2.84,29.46,29.46,0,0,0-4.45-4.24c-1.22-.81-1.62-.41-2.43.2s-2,1.42-3,2a10,10,0,0,1-2.63,1.22,7.28,7.28,0,0,0-2.23.6,3.71,3.71,0,0,0-1.21,1.82c-.2.61-.2,1-.4,1.22s-.61.2-1.42.4a8.64,8.64,0,0,0-2.83,1.21c-.81.61-1.21,1.42-1.62,1.62s-.8-.2-1.21-.61-.81-.8-1.21-.8-.81.4-1.42,1.21a12.23,12.23,0,0,1-2,2.42c-.61.41-1,0-1.62-.2s-1.41-.2-2.22-.4a19.84,19.84,0,0,0-2-.61c-.41,0-.41.41-.81.81a10.85,10.85,0,0,0-1.82,1.62c-.61.81-1,2-1.42,2.63s-.81.6-1,.2-.2-1.21-.4-1.62-.61-.4-1.42-.4h-2.83c-.81,0-1.21,0-1.62.6s-.8,1.82-1.41,2.63-1.42,1.22-1.82,2.23a21.79,21.79,0,0,0-.61,3.64,3.06,3.06,0,0,1-1,1.82,3.57,3.57,0,0,0-1,1.41c-.2.61-.2,1.42-.4,1.82s-.61.41-1,.2a3,3,0,0,0-1.61-.6c-.81,0-2,.4-3.64.4a16.07,16.07,0,0,1-5.26-1,38.88,38.88,0,0,1-4-2,13.65,13.65,0,0,1-3-1.62c-.6-.61-.6-1.42-1.21-2a11.94,11.94,0,0,0-3.23-1.62,19.13,19.13,0,0,1-4-2.22,8.07,8.07,0,0,1-1.82-2.23,2.73,2.73,0,0,0-1.41-1.21c-.61-.2-1.42-.2-2-.41a1.81,1.81,0,0,1-1.21-1.21c-.2-.61-.2-1.41-.4-2s-.61-1-.61-1.42.4-.8.61-1.21.2-.81-.21-1-1.21-.2-1.61-.51a2.22,2.22,0,0,0-1.64-.84" transform="translate(-11.62 -18.88)"/><path class="cls-1" d="M183.19,229.55a9.52,9.52,0,0,1-1.88.57c-.61.2-.61.61-.61,1v1.42a5.11,5.11,0,0,1-.2,1.82c-.2.4-.61.4-1.21.2a7.77,7.77,0,0,0-3-.61c-1.61,0-4,.41-5.66.41a21.65,21.65,0,0,1-3-.41c-.61,0-1,.41-1.62.61a3.48,3.48,0,0,1-2,0c-.61-.2-1-.61-1.62-.61a7.9,7.9,0,0,0-2,.61,4.51,4.51,0,0,1-1.62.2h-2a3.05,3.05,0,0,1-1.42-.2,5.63,5.63,0,0,1-1.21-1l-1.41-1.42a15.16,15.16,0,0,1-1.82-2c-.41-.61-.41-1-.61-1.21s-.61-.2-1.42-.2h-6.47a3.49,3.49,0,0,0-1.61.2c-.41.2-.81.6-2,1.41a49.39,49.39,0,0,0-4.65,3.24c-1.41,1.21-2.22,2.42-2.83,2.83s-1,0-1.41-.41-.81-.8-1.21-.8-.81.4-1.42,1.61-1.42,3.24-2,4.25-1,1-1.42,1a2.58,2.58,0,0,1-1.21-.2c-.41-.2-.81-.61-1.21-.61s-.81.41-1.22.61-.81.2-1.21.4a5.4,5.4,0,0,0-1.21,1,3.58,3.58,0,0,0-1,1.42c-.21.61-.21,1.41-.41,1.82s-.6.4-1,.81-.81,1.21-1.21,1.41-.81-.2-1.42-.6-1.41-.81-2-1.22-1-.81-1.42-1a1.26,1.26,0,0,0-1.31.1,4.89,4.89,0,0,1-3.13.91" transform="translate(-11.62 -18.88)"/><path class="cls-1" d="M150,374.65a8.42,8.42,0,0,0,1.48-1.88,20.76,20.76,0,0,0,1.32-3.34,31.42,31.42,0,0,0,1-3.43c.2-1,.2-1.82.4-2.63s.61-1.62.81-2.43a4.16,4.16,0,0,0,0-2.22,3.58,3.58,0,0,0-1-1.42,3.64,3.64,0,0,1-1-1.41,7.71,7.71,0,0,1-.2-2.23v-18.4c0-3,0-3.84.2-4.24s.61-.41,1.21-.61,1.42-.61,2.23-.81a11.7,11.7,0,0,1,2.83-.2,19.9,19.9,0,0,0,3.64-.2c.81-.21.81-.61,1.62-1.22a16.88,16.88,0,0,0,3.23-2.42,6.68,6.68,0,0,0,1-3,1.77,1.77,0,0,1,1.22-1.41,6.9,6.9,0,0,1,2-.2,4.46,4.46,0,0,1,1.61.2,4,4,0,0,0,2.23.4,8.24,8.24,0,0,0,2.22-1.41,2.17,2.17,0,0,1,1.42-.41c.4,0,.81,0,1,.21s.2.6.61,1.21a5.89,5.89,0,0,0,2,1.82,2.5,2.5,0,0,0,2,.2c.4-.2.4-.61.81-1a3.09,3.09,0,0,1,2-.81,4.25,4.25,0,0,1,2.43,1,23.6,23.6,0,0,1,2.22,2c.61.61,1,1,1.21,1s.21-.41.61-1a19.24,19.24,0,0,1,2-2.22,10.58,10.58,0,0,1,2.43-2,2,2,0,0,1,2-.1c.33.24.39.68,3,1.48" transform="translate(-11.62 -18.88)"/><path class="cls-1" d="M104.07,271.9c3.05-.53,4.05,0,5.05.38,1.22.5,2.43.91,3.44,1.31a8.2,8.2,0,0,0,2.43.81c.61,0,1-.4,1.41-1s.81-1.41,1.22-2a3.49,3.49,0,0,1,1.21-1.22,1.3,1.3,0,0,1,1.21,0c.41.21.81.61,1.22.81a.88.88,0,0,0,1,0c.2-.2.2-.6,0-1.21a3.6,3.6,0,0,1-.41-2c.2-.61,1-1,2-2s2.22-2.63,3.43-3.64a21.39,21.39,0,0,1,3.44-2c1-.61,1.82-1.42,2.63-1.82a5.06,5.06,0,0,1,2.42-.41,12.57,12.57,0,0,1,2.63.2,23.21,23.21,0,0,0,2.83.61c.61,0,.61-.4,1-.61a18.09,18.09,0,0,1,2-.4c.81-.2,1.61-.61,2.22-.81s1-.2,1.21,0a7,7,0,0,0,1,1.42c.81.8,2.43,2,3.44,3s1.42,1.82,2,2.43a12.41,12.41,0,0,0,2,1.41,3.45,3.45,0,0,1,1.21,1.21,1.32,1.32,0,0,1,0,1.22,5.4,5.4,0,0,1-1,1.21c-.41.4-.81.81-.81,1.21s.4.81,1,1.82,1.42,2.63,2,3.84,1,2,1.42,2.83a19.93,19.93,0,0,1,1,2.23c.2.61.2,1,.61,1.21a2.24,2.24,0,0,0,1.61,0c.41-.2.41-.6.61-.6s.61.4.81.4.2-.4.2-.81a2.18,2.18,0,0,1,.4-1.41,6.18,6.18,0,0,1,1.62-1.62c.41-.2.41.2.41.6v1.22c0,.4,0,.81.91,1a30.43,30.43,0,0,0,5.08.2" transform="translate(-11.62 -18.88)"/></svg>